<?xml version="1.0" standalone="no"?>
<!DOCTYPE svg PUBLIC "-//W3C//DTD SVG 20010904//EN"
 "http://www.w3.org/TR/2001/REC-SVG-20010904/DTD/svg10.dtd">
<svg version="1.0" xmlns="http://www.w3.org/2000/svg"
 width="600.000000pt" height="600.000000pt" viewBox="0 0 600.000000 600.000000"
 preserveAspectRatio="xMidYMid meet">
<metadata>
Created by potrace 1.11, written by Peter Selinger 2001-2013
</metadata>
<g transform="translate(0.000000,600.000000) scale(0.100000,-0.100000)"
fill="#000000" stroke="none">
<path d="M2160 4874 c-86 -16 -104 -20 -164 -40 -53 -17 -197 -82 -206 -93 -3
-3 -30 -23 -60 -43 -120 -81 -207 -189 -260 -324 -20 -51 -43 -82 -111 -151
-276 -283 -450 -614 -487 -928 -13 -115 -7 -352 12 -442 28 -131 109 -318 169
-388 69 -82 153 -155 176 -155 6 0 11 -4 11 -9 0 -5 8 -11 18 -14 9 -3 44 -17
77 -31 33 -14 76 -27 95 -31 19 -3 48 -8 65 -11 36 -8 241 -7 275 1 14 3 34 8
45 9 11 2 40 7 65 11 25 4 51 11 58 17 6 6 12 8 12 4 0 -4 14 0 30 9 17 9 30
13 30 11 0 -6 61 19 155 65 123 60 259 156 366 259 34 33 64 60 65 60 2 0 12
-19 22 -42 37 -81 109 -138 205 -164 65 -17 239 -11 317 10 30 9 66 19 80 23
76 21 224 123 350 241 l75 71 25 -23 c74 -69 176 -71 315 -6 65 30 212 130
249 169 17 17 33 31 37 31 3 0 9 -14 13 -32 14 -68 79 -108 172 -103 79 4 94
9 164 46 84 45 151 111 258 256 29 39 58 73 65 76 36 14 81 -69 71 -130 -11
-69 -53 -122 -123 -158 -27 -14 -363 -114 -436 -130 -11 -2 -63 -16 -115 -30
-52 -15 -102 -28 -110 -30 -8 -2 -107 -29 -220 -60 -113 -31 -213 -58 -223
-60 -10 -2 -27 -7 -37 -10 -10 -3 -28 -8 -39 -10 -48 -11 -58 -14 -112 -29
-31 -9 -65 -19 -75 -21 -11 -2 -46 -12 -79 -21 -33 -9 -67 -18 -75 -19 -8 -2
-49 -13 -90 -24 -41 -11 -138 -36 -215 -56 -77 -20 -162 -42 -190 -50 -27 -8
-65 -17 -84 -20 -19 -3 -38 -8 -43 -11 -4 -3 -16 -7 -25 -9 -10 -1 -45 -10
-78 -19 -33 -9 -68 -19 -79 -21 -10 -2 -64 -16 -120 -31 -55 -14 -105 -27
-111 -28 -5 -2 -23 -6 -40 -11 -98 -26 -723 -187 -740 -190 -38 -9 -62 -15
-395 -100 -184 -48 -342 -88 -350 -90 -8 -1 -35 -8 -60 -15 -25 -7 -49 -13
-55 -14 -66 -14 -125 -30 -125 -35 0 -4 62 -68 138 -143 l137 -136 123 1 c68
2 126 -1 129 -5 2 -5 8 -6 12 -4 10 7 153 -27 231 -54 158 -55 338 -158 489
-280 53 -44 67 -50 90 -44 14 4 28 8 31 8 3 1 43 14 90 30 61 20 97 39 125 65
22 21 65 56 95 79 30 23 60 46 67 52 20 16 222 139 297 181 159 88 806 399
830 399 3 0 40 16 83 36 264 123 741 320 973 402 47 17 130 47 185 67 55 19
200 69 323 111 123 41 238 83 256 93 18 11 44 25 57 33 55 31 158 147 193 220
34 70 66 185 60 221 -1 9 2 17 8 17 6 0 4 7 -3 17 -12 14 -12 15 -1 9 11 -7
12 -4 4 10 -5 11 -12 42 -16 69 -8 64 -55 161 -104 212 -43 46 -124 103 -146
103 -8 0 -17 4 -20 9 -6 10 -58 20 -139 28 -116 10 -250 -41 -361 -139 -35
-30 -47 -36 -43 -23 22 77 36 131 37 137 0 4 7 26 15 48 8 22 12 40 10 40 -3
0 0 12 6 26 5 15 12 43 15 63 3 20 7 43 10 51 3 8 7 31 10 50 2 19 6 46 9 60
3 14 8 45 11 70 3 25 8 47 9 50 5 8 17 150 13 150 -5 0 -160 -50 -178 -57 -8
-3 -17 -7 -20 -8 -8 -2 -49 -15 -148 -46 l-94 -30 -48 24 c-39 20 -61 24 -107
21 -98 -6 -188 -32 -295 -85 -78 -38 -90 -37 -64 4 32 48 76 204 78 273 5 236
-115 312 -397 250 -31 -7 -150 -59 -153 -68 -2 -4 -8 -8 -13 -8 -6 0 -38 -19
-72 -41 -86 -58 -261 -238 -327 -338 l-55 -83 -7 54 c-4 29 -10 89 -13 133 -4
44 -9 83 -11 86 -2 4 -6 27 -9 52 -16 136 -108 321 -202 408 -74 68 -196 137
-275 155 -10 2 -28 7 -40 10 -43 12 -233 11 -298 -2z"/>
</g>
</svg>
